<svg width="32" height="24" viewBox="0 0 32 24" fill="none" xmlns="http://www.w3.org/2000/svg">
<path d="M17.6 6.85714H1.6C0.72 6.85714 0 7.62857 0 8.57143C0 9.51429 0.72 10.2857 1.6 10.2857H17.6C18.48 10.2857 19.2 9.51429 19.2 8.57143C19.2 7.62857 18.48 6.85714 17.6 6.85714ZM17.6 0H1.6C0.72 0 0 0.771429 0 1.71429C0 2.65714 0.72 3.42857 1.6 3.42857H17.6C18.48 3.42857 19.2 2.65714 19.2 1.71429C19.2 0.771429 18.48 0 17.6 0ZM25.6 13.7143V8.57143C25.6 7.62857 24.88 6.85714 24 6.85714C23.12 6.85714 22.4 7.62857 22.4 8.57143V13.7143H17.6C16.72 13.7143 16 14.4857 16 15.4286C16 16.3714 16.72 17.1429 17.6 17.1429H22.4V22.2857C22.4 23.2286 23.12 24 24 24C24.88 24 25.6 23.2286 25.6 22.2857V17.1429H30.4C31.28 17.1429 32 16.3714 32 15.4286C32 14.4857 31.28 13.7143 30.4 13.7143H25.6ZM1.6 17.1429H11.2C12.08 17.1429 12.8 16.3714 12.8 15.4286C12.8 14.4857 12.08 13.7143 11.2 13.7143H1.6C0.72 13.7143 0 14.4857 0 15.4286C0 16.3714 0.72 17.1429 1.6 17.1429Z" fill="#FF7506"/>
</svg>
