<svg xmlns="http://www.w3.org/2000/svg" width="28.74" height="23.335" viewBox="0 0 28.74 23.335"><defs><style>.a{fill:#939393;}</style></defs><path class="a" d="M32.74,40H4v2.083a1.418,1.418,0,0,0,1.54,1.25H31.2a1.418,1.418,0,0,0,1.54-1.25ZM18.37,42.917a1.277,1.277,0,1,1,0-2.5,1.277,1.277,0,1,1,0,2.5Z" transform="translate(-4 -24.999)"/><ellipse class="a" cx="0.402" cy="0.602" rx="0.402" ry="0.602" transform="translate(13.941 16.107)"/><path class="a" d="M35.073,58.417c0-.23-.273-.417-.61-.417H18.61c-.337,0-.61.187-.61.417v.417H35.073Z" transform="translate(-12.166 -35.498)"/><path class="a" d="M32.74,5.25A1.418,1.418,0,0,0,31.2,4H5.54A1.418,1.418,0,0,0,4,5.25V18.168H32.74Z" transform="translate(-4 -4)"/><path class="a" d="M24.381,50l-.938,2.5h7.131L29.637,50Z" transform="translate(-12.639 -30.832)"/></svg>