<svg width="24" height="24" viewBox="0 0 24 24" fill="none" xmlns="http://www.w3.org/2000/svg">
<g clip-path="url(#clip0)">
<path d="M16.9506 2.76953C17.9293 3.67714 18.5958 4.8334 18.8657 6.09211C19.1356 7.35083 18.9968 8.65547 18.4669 9.84108C17.9371 11.0267 17.0398 12.04 15.8888 12.753C14.7377 13.4659 13.3844 13.8465 12 13.8465C10.6156 13.8465 9.26234 13.4659 8.11125 12.753C6.96015 12.04 6.06295 11.0267 5.53306 9.84108C5.00318 8.65547 4.86443 7.35083 5.13434 6.09211C5.40425 4.8334 6.07071 3.67714 7.04945 2.76953" stroke="#EC3740" stroke-width="2" stroke-linecap="round" stroke-linejoin="round"/>
<path d="M12 0.923828V5.53921" stroke="#EC3740" stroke-width="2" stroke-linecap="round" stroke-linejoin="round"/>
<path d="M5.70453 19.9375C5.70453 20.4709 5.83253 20.9242 6.08853 21.2975C6.34453 21.6655 6.73386 21.8495 7.25653 21.8495C7.7792 21.8495 8.16853 21.6655 8.42453 21.2975C8.68053 20.9242 8.80853 20.4709 8.80853 19.9375C8.80853 19.5855 8.75786 19.2682 8.65653 18.9855C8.56053 18.6975 8.39253 18.4575 8.15253 18.2655C7.91253 18.0735 7.61386 17.9775 7.25653 17.9775C6.8992 17.9775 6.60053 18.0735 6.36053 18.2655C6.12053 18.4575 5.94986 18.6975 5.84853 18.9855C5.75253 19.2682 5.70453 19.5855 5.70453 19.9375ZM4.44853 19.9375C4.44853 19.0682 4.70186 18.3482 5.20853 17.7775C5.7152 17.2069 6.39786 16.9215 7.25653 16.9215C8.1152 16.9215 8.79786 17.2069 9.30453 17.7775C9.8112 18.3482 10.0645 19.0682 10.0645 19.9375C10.0645 20.7909 9.8112 21.4975 9.30453 22.0575C8.79786 22.6175 8.1152 22.8975 7.25653 22.8975C6.39786 22.8975 5.7152 22.6175 5.20853 22.0575C4.70186 21.4975 4.44853 20.7909 4.44853 19.9375ZM10.9231 17.0575H14.9391V18.1135H12.1791V19.4335H14.5711V20.4095H12.1791V22.7695H10.9231V17.0575ZM15.6653 17.0575H19.6813V18.1135H16.9213V19.4335H19.3133V20.4095H16.9213V22.7695H15.6653V17.0575Z" fill="#EC3740"/>
</g>
<defs>
<clipPath id="clip0">
<rect width="24" height="24" fill="white"/>
</clipPath>
</defs>
</svg>
