<svg width="24" height="24" viewBox="0 0 24 24" fill="none" xmlns="http://www.w3.org/2000/svg">
<g clip-path="url(#clip0)">
<path d="M16.9506 2.76953C17.9293 3.67714 18.5958 4.8334 18.8657 6.09211C19.1356 7.35083 18.9968 8.65547 18.4669 9.84108C17.9371 11.0267 17.0398 12.04 15.8888 12.753C14.7377 13.4659 13.3844 13.8465 12 13.8465C10.6156 13.8465 9.26234 13.4659 8.11125 12.753C6.96015 12.04 6.06295 11.0267 5.53306 9.84108C5.00318 8.65547 4.86443 7.35083 5.13434 6.09211C5.40425 4.8334 6.07071 3.67714 7.04945 2.76953" stroke="#2F67BA" stroke-width="2" stroke-linecap="round" stroke-linejoin="round"/>
<path d="M12 0.921875V5.53726" stroke="#2F67BA" stroke-width="2" stroke-linecap="round" stroke-linejoin="round"/>
<path d="M7.98188 19.9375C7.98188 20.4709 8.10988 20.9242 8.36588 21.2975C8.62188 21.6655 9.01121 21.8495 9.53388 21.8495C10.0565 21.8495 10.4459 21.6655 10.7019 21.2975C10.9579 20.9242 11.0859 20.4709 11.0859 19.9375C11.0859 19.5855 11.0352 19.2682 10.9339 18.9855C10.8379 18.6975 10.6699 18.4575 10.4299 18.2655C10.1899 18.0735 9.89121 17.9775 9.53388 17.9775C9.17654 17.9775 8.87788 18.0735 8.63788 18.2655C8.39788 18.4575 8.22721 18.6975 8.12588 18.9855C8.02988 19.2682 7.98188 19.5855 7.98188 19.9375ZM6.72588 19.9375C6.72588 19.0682 6.97921 18.3482 7.48588 17.7775C7.99254 17.2069 8.67521 16.9215 9.53388 16.9215C10.3925 16.9215 11.0752 17.2069 11.5819 17.7775C12.0885 18.3482 12.3419 19.0682 12.3419 19.9375C12.3419 20.7909 12.0885 21.4975 11.5819 22.0575C11.0752 22.6175 10.3925 22.8975 9.53388 22.8975C8.67521 22.8975 7.99254 22.6175 7.48588 22.0575C6.97921 21.4975 6.72588 20.7909 6.72588 19.9375ZM13.2004 17.0575H14.4484L16.8324 20.8895H16.8484V17.0575H18.0244V22.7695H16.7684L14.3924 18.9455H14.3764V22.7695H13.2004V17.0575Z" fill="#2F67BA"/>
</g>
<defs>
<clipPath id="clip0">
<rect width="24" height="24" fill="white"/>
</clipPath>
</defs>
</svg>
