<svg width="30" height="22" viewBox="0 0 30 22" fill="none" xmlns="http://www.w3.org/2000/svg">
<path fill-rule="evenodd" clip-rule="evenodd" d="M3.31452 10.9997C3.44405 11.2235 3.61577 11.5088 3.8285 11.8382C4.37489 12.6842 5.18406 13.8093 6.23457 14.9298C8.35721 17.194 11.3249 19.296 14.9996 19.296C18.6742 19.296 21.6419 17.194 23.7645 14.9298C24.8151 13.8093 25.6242 12.6842 26.1706 11.8382C26.3833 11.5088 26.5551 11.2235 26.6846 10.9997C26.5551 10.7758 26.3833 10.4906 26.1706 10.1612C25.6242 9.31515 24.8151 8.19008 23.7645 7.06953C21.6419 4.80537 18.6742 2.70338 14.9996 2.70338C11.3249 2.70338 8.35721 4.80537 6.23457 7.06953C5.18406 8.19008 4.37489 9.31515 3.8285 10.1612C3.61577 10.4906 3.44405 10.7758 3.31452 10.9997ZM28.0366 10.9997C29.0966 10.4696 29.0965 10.4692 29.0962 10.4688L29.0943 10.465L29.0902 10.4569L29.0768 10.4306C29.0655 10.4086 29.0495 10.3778 29.0289 10.3389C28.9877 10.2609 28.9278 10.1502 28.8497 10.0112C28.6934 9.73347 28.4634 9.34221 28.1618 8.8752C27.5601 7.94345 26.6655 6.69816 25.4938 5.44833C23.172 2.97175 19.6212 0.333008 14.9996 0.333008C10.3779 0.333008 6.8271 2.97175 4.5053 5.44833C3.33359 6.69816 2.43905 7.94345 1.8373 8.8752C1.53568 9.34221 1.30569 9.73347 1.14946 10.0112C1.0713 10.1502 1.01147 10.2609 0.970237 10.3389C0.949618 10.3778 0.93364 10.4086 0.922337 10.4306L0.908887 10.4569L0.904797 10.465L0.903412 10.4678C0.903194 10.4682 0.902467 10.4696 1.96253 10.9997L0.902467 10.4696C0.735636 10.8033 0.735636 11.196 0.902467 11.5297L1.96253 10.9997C0.902467 11.5297 0.902249 11.5293 0.902467 11.5297L0.904797 11.5343L0.908887 11.5424L0.922337 11.5688C0.93364 11.5908 0.949618 11.6215 0.970237 11.6605C1.01147 11.7384 1.0713 11.8492 1.14946 11.9881C1.30569 12.2659 1.53568 12.6571 1.8373 13.1241C2.43905 14.0559 3.33359 15.3012 4.5053 16.551C6.8271 19.0276 10.3779 21.6663 14.9996 21.6663C19.6212 21.6663 23.172 19.0276 25.4938 16.551C26.6655 15.3012 27.5601 14.0559 28.1618 13.1241C28.4634 12.6571 28.6934 12.2659 28.8497 11.9881C28.9278 11.8492 28.9877 11.7384 29.0289 11.6605C29.0495 11.6215 29.0655 11.5908 29.0768 11.5688L29.0902 11.5424L29.0943 11.5343L29.0957 11.5316C29.0959 11.5312 29.0966 11.5297 28.0366 10.9997ZM28.0366 10.9997L29.0966 11.5297C29.2635 11.196 29.2631 10.8025 29.0962 10.4688L28.0366 10.9997Z" fill="white"/>
<path fill-rule="evenodd" clip-rule="evenodd" d="M14.9993 8.15494C13.4284 8.15494 12.1549 9.42842 12.1549 10.9993C12.1549 12.5703 13.4284 13.8437 14.9993 13.8437C16.5703 13.8437 17.8437 12.5703 17.8437 10.9993C17.8437 9.42842 16.5703 8.15494 14.9993 8.15494ZM9.31055 10.9993C9.31055 7.85751 11.8575 5.31055 14.9993 5.31055C18.1412 5.31055 20.6881 7.85751 20.6881 10.9993C20.6881 14.1412 18.1412 16.6881 14.9993 16.6881C11.8575 16.6881 9.31055 14.1412 9.31055 10.9993Z" fill="white"/>
</svg>

