<svg width="204" height="204" viewBox="0 0 204 204" fill="none" xmlns="http://www.w3.org/2000/svg">
<g opacity="0.5">
<path d="M178.5 0H25.5C11.4364 0 0 11.4364 0 25.5V178.5C0 192.564 11.4364 204 25.5 204H178.5C192.564 204 204 192.564 204 178.5V25.5C204 11.4364 192.564 0 178.5 0ZM25.5 17H178.5C183.188 17 187 20.8121 187 25.5V85.7305L159.01 57.7402C155.689 54.422 150.311 54.422 146.99 57.7402L87.125 117.605L65.5098 95.9902C62.1895 92.672 56.8105 92.672 53.4902 95.9902L17 132.48V25.5C17 20.8121 20.8121 17 25.5 17ZM178.5 187H25.5C20.8121 187 17 183.188 17 178.5V156.52L59.5 114.02L108.74 163.256C110.402 164.922 112.573 165.75 114.75 165.75C116.927 165.75 119.098 164.922 120.76 163.26C124.078 159.939 124.078 154.561 120.76 151.24L99.1445 129.625L153 75.7737L187 109.774V178.5C187 183.188 183.188 187 178.5 187Z" fill="#6CB6DD"/>
<path d="M68 51C68 60.3882 60.3882 68 51 68C41.6118 68 34 60.3882 34 51C34 41.6118 41.6118 34 51 34C60.3882 34 68 41.6118 68 51Z" fill="#6CB6DD"/>
</g>
</svg>
