<svg width="32" height="32" viewBox="0 0 32 32" fill="none" xmlns="http://www.w3.org/2000/svg">
<path fill-rule="evenodd" clip-rule="evenodd" d="M10.0785 5.24002C11.6452 3.59521 13.7748 2.66699 16 2.66699C18.2252 2.66699 20.3548 3.59521 21.9215 5.24002C23.4876 6.88407 24.3636 9.10924 24.3636 11.4249C24.3636 15.7169 25.2383 18.3943 26.0528 19.9621C26.4615 20.7486 26.8605 21.2667 27.1402 21.5766C27.2803 21.7318 27.3911 21.8356 27.4593 21.8953C27.4934 21.9251 27.5168 21.9439 27.5279 21.9525C27.5306 21.9547 27.5326 21.9562 27.5338 21.9571C27.9218 22.236 28.0912 22.7413 27.9516 23.2078C27.8108 23.6789 27.3879 24.0003 26.909 24.0003H5.09098C4.61211 24.0003 4.18922 23.6789 4.04835 23.2078C3.90883 22.7413 4.07825 22.236 4.4662 21.9571C4.46742 21.9562 4.46939 21.9547 4.4721 21.9525C4.48319 21.9439 4.50662 21.9251 4.54071 21.8953C4.60886 21.8356 4.71974 21.7318 4.85984 21.5766C5.13948 21.2667 5.53854 20.7486 5.94716 19.9621C6.7617 18.3943 7.63642 15.7169 7.63642 11.4249C7.63642 9.10924 8.51244 6.88407 10.0785 5.24002ZM7.45656 21.7547H24.5434C24.4062 21.5313 24.2671 21.2872 24.1289 21.021C23.1252 19.0893 22.1818 16.0405 22.1818 11.4249C22.1818 9.69063 21.5253 8.03177 20.3636 6.81211C19.2025 5.59321 17.6325 4.91261 16 4.91261C14.3675 4.91261 12.7975 5.59321 11.6364 6.81211C10.4747 8.03177 9.81822 9.69063 9.81822 11.4249C9.81822 16.0405 8.87478 19.0893 7.87114 21.021C7.73285 21.2872 7.59384 21.5313 7.45656 21.7547Z" fill="white" stroke="white" stroke-width="0.25" stroke-linecap="round" stroke-linejoin="round"/>
<path fill-rule="evenodd" clip-rule="evenodd" d="M9.90373 24.1349C10.4398 23.8483 11.1165 24.0332 11.415 24.5479C11.887 25.3615 12.5612 26.0315 13.3658 26.4949C14.17 26.9581 15.0781 27.2001 15.9997 27.2001C16.9212 27.2001 17.8293 26.9581 18.6335 26.4949C19.4381 26.0315 20.1124 25.3615 20.5843 24.5479C20.8829 24.0332 21.5595 23.8483 22.0956 24.1349C22.6317 24.4215 22.8243 25.0711 22.5258 25.5858C21.8686 26.7187 20.9222 27.6644 19.7768 28.3242C18.6311 28.9841 17.3284 29.3333 15.9997 29.3333C14.6709 29.3333 13.3683 28.9841 12.2225 28.3242C11.0772 27.6644 10.1307 26.7187 9.47357 25.5858C9.17503 25.0711 9.36762 24.4215 9.90373 24.1349Z" fill="white"/>
</svg>
