<svg xmlns="http://www.w3.org/2000/svg" width="23.326" height="23.431" viewBox="0 0 23.326 23.431"><defs><style>.a{fill:#fff;}</style></defs><g transform="translate(0 7.531)"><path class="a" d="M22.643,128.533H.683a.655.655,0,0,0-.683.622v14.656a.655.655,0,0,0,.683.622H22.643a.655.655,0,0,0,.683-.622V129.155A.655.655,0,0,0,22.643,128.533ZM15.519,137l-5.49,3.331a.742.742,0,0,1-.7.031.617.617,0,0,1-.361-.548v-6.662a.617.617,0,0,1,.361-.548.741.741,0,0,1,.7.031l5.49,3.331a.592.592,0,0,1,0,1.035Z" transform="translate(0 -128.533)"/></g><g transform="translate(2.824 3.766)"><path class="a" d="M65.24,64.268h-16.4c-.352,0-.638.394-.638.879s.286.879.638.879h16.4c.352,0,.638-.394.638-.879S65.593,64.268,65.24,64.268Z" transform="translate(-48.201 -64.268)"/></g><g transform="translate(2.311)"><path class="a" d="M114.224,0H97.279a.879.879,0,1,0,0,1.758h16.945a.879.879,0,1,0,0-1.758Z" transform="translate(-96.4)"/></g></svg>