<svg width={8} height={14} viewBox="0 0 8 14" fill="none" xmlns="http://www.w3.org/2000/svg">
  <path d="M5.80899 0.361635L0.378828 6.07213C0.258791 6.19588 0.163514 6.3431 0.0984949 6.50531C0.0334755 6.66752 0 6.8415 0 7.01722C0 7.19295 0.0334755 7.36693 0.0984949 7.52914C0.163514 7.69135 0.258791 7.83857 0.378828 7.96232L5.80899 13.6063C5.92805 13.731 6.06969 13.83 6.22576 13.8976C6.38182 13.9652 6.54922 14 6.71829 14C6.88735 14 7.05475 13.9652 7.21081 13.8976C7.36688 13.83 7.50852 13.731 7.62758 13.6063C7.86611 13.3569 8 13.0195 8 12.6678C8 12.3162 7.86611 11.9788 7.62758 11.7294L3.09391 7.01722L7.62758 2.30507C7.86418 2.05713 7.99757 1.72249 7.99899 1.37329C7.99996 1.1981 7.96765 1.02444 7.90392 0.862259C7.84019 0.700079 7.74628 0.552569 7.62758 0.42819C7.51281 0.298972 7.37454 0.194674 7.22076 0.12132C7.06698 0.047966 6.90073 0.00701237 6.73164 0.000823975C6.56254 -0.00536537 6.39394 0.0233355 6.23558 0.0852652C6.07721 0.147195 5.93222 0.241127 5.80899 0.361635Z" fill="#FF7506" />
</svg>
