<svg width="32" height="32" viewBox="0 0 32 32" fill="none" xmlns="http://www.w3.org/2000/svg">
<path d="M28.2108 2.91751C27.2563 2.75472 26.2898 2.67093 25.3213 2.667C22.0168 2.66432 18.7813 3.60255 16.0003 5.36987C13.2122 3.62576 9.97719 2.71055 6.67936 2.73292C5.71084 2.73685 4.74433 2.82064 3.78986 2.98343C3.47722 3.0368 3.19409 3.19895 2.99147 3.44067C2.78885 3.68239 2.68005 3.9878 2.68466 4.30191V20.1236C2.68181 20.3173 2.72211 20.5093 2.8027 20.6859C2.88329 20.8624 3.00219 21.0192 3.15094 21.1451C3.29968 21.271 3.47462 21.3629 3.6633 21.4142C3.85198 21.4655 4.04977 21.475 4.24259 21.4421C6.15075 21.1149 8.10574 21.1692 9.99238 21.6017C11.879 22.0342 13.6592 22.8362 15.228 23.9604L15.3878 24.0527H15.5343C15.682 24.1136 15.8403 24.145 16.0003 24.145C16.1603 24.145 16.3187 24.1136 16.4664 24.0527H16.6128L16.7726 23.9604C18.3305 22.811 20.1056 21.9831 21.9926 21.5256C23.8796 21.0681 25.8401 20.9904 27.7581 21.297C27.9509 21.33 28.1487 21.3205 28.3373 21.2691C28.526 21.2178 28.701 21.1259 28.8497 21.0001C28.9985 20.8742 29.1174 20.7174 29.1979 20.5408C29.2785 20.3643 29.3188 20.1723 29.316 19.9786V4.15687C29.3021 3.85646 29.185 3.56977 28.984 3.34435C28.7829 3.11892 28.5101 2.96832 28.2108 2.91751ZM14.6688 20.44C12.2052 19.1568 9.46302 18.487 6.67936 18.4887C6.23994 18.4887 5.80053 18.4887 5.34779 18.4887V5.30395C5.79128 5.27864 6.23587 5.27864 6.67936 5.30395C9.5201 5.30084 12.2989 6.12627 14.6688 7.6772V20.44ZM26.6529 18.5414C26.2001 18.5414 25.7607 18.5414 25.3213 18.5414C22.5376 18.5397 19.7954 19.2095 17.3319 20.4928V7.6772C19.7018 6.12627 22.4805 5.30084 25.3213 5.30395C25.7648 5.27864 26.2094 5.27864 26.6529 5.30395V18.5414ZM28.2108 24.0131C27.2563 23.8503 26.2898 23.7665 25.3213 23.7626C22.0168 23.7599 18.7813 24.6982 16.0003 26.4655C13.2194 24.6982 9.98382 23.7599 6.67936 23.7626C5.71084 23.7665 4.74433 23.8503 3.78986 24.0131C3.61653 24.0403 3.45034 24.1012 3.30086 24.1923C3.15138 24.2833 3.02155 24.4028 2.91884 24.5437C2.81613 24.6846 2.74256 24.8442 2.70237 25.0134C2.66219 25.1825 2.65617 25.3579 2.68466 25.5294C2.75233 25.8717 2.95429 26.1736 3.2463 26.3688C3.53831 26.5641 3.89657 26.6368 4.24259 26.571C6.15075 26.2438 8.10574 26.2981 9.99238 26.7306C11.879 27.1631 13.6592 27.965 15.228 29.0892C15.4535 29.2482 15.7235 29.3337 16.0003 29.3337C16.2772 29.3337 16.5471 29.2482 16.7726 29.0892C18.3415 27.965 20.1216 27.1631 22.0083 26.7306C23.8949 26.2981 25.8499 26.2438 27.7581 26.571C28.1041 26.6368 28.4623 26.5641 28.7543 26.3688C29.0464 26.1736 29.2483 25.8717 29.316 25.5294C29.3445 25.3579 29.3385 25.1825 29.2983 25.0134C29.2581 24.8442 29.1845 24.6846 29.0818 24.5437C28.9791 24.4028 28.8493 24.2833 28.6998 24.1923C28.5503 24.1012 28.3841 24.0403 28.2108 24.0131Z" fill="white"/>
</svg>
