<svg width="32" height="32" viewBox="0 0 32 32" fill="none" xmlns="http://www.w3.org/2000/svg">
<path d="M16 24.4852C16.2373 24.4852 16.4693 24.4141 16.6667 24.2809C16.864 24.1477 17.0178 23.9584 17.1087 23.7369C17.1995 23.5154 17.2232 23.2717 17.1769 23.0366C17.1306 22.8015 17.0164 22.5855 16.8485 22.416C16.6807 22.2464 16.4669 22.131 16.2341 22.0842C16.0013 22.0375 15.7601 22.0615 15.5408 22.1532C15.3215 22.2449 15.1341 22.4003 15.0022 22.5996C14.8704 22.799 14.8 23.0333 14.8 23.2731C14.8 23.5945 14.9264 23.9028 15.1515 24.1302C15.3765 24.3575 15.6817 24.4852 16 24.4852ZM22 24.4852C22.2373 24.4852 22.4693 24.4141 22.6667 24.2809C22.864 24.1477 23.0178 23.9584 23.1087 23.7369C23.1995 23.5154 23.2232 23.2717 23.1769 23.0366C23.1306 22.8015 23.0164 22.5855 22.8485 22.416C22.6807 22.2464 22.4669 22.131 22.2341 22.0842C22.0013 22.0375 21.7601 22.0615 21.5408 22.1532C21.3215 22.2449 21.1341 22.4003 21.0022 22.5996C20.8704 22.799 20.8 23.0333 20.8 23.2731C20.8 23.5945 20.9264 23.9028 21.1515 24.1302C21.3765 24.3575 21.6817 24.4852 22 24.4852ZM22 19.6367C22.2373 19.6367 22.4693 19.5656 22.6667 19.4324C22.864 19.2992 23.0178 19.1099 23.1087 18.8884C23.1995 18.6669 23.2232 18.4232 23.1769 18.1881C23.1306 17.953 23.0164 17.737 22.8485 17.5675C22.6807 17.398 22.4669 17.2825 22.2341 17.2357C22.0013 17.189 21.7601 17.213 21.5408 17.3047C21.3215 17.3965 21.1341 17.5518 21.0022 17.7511C20.8704 17.9505 20.8 18.1848 20.8 18.4246C20.8 18.746 20.9264 19.0543 21.1515 19.2817C21.3765 19.509 21.6817 19.6367 22 19.6367ZM16 19.6367C16.2373 19.6367 16.4693 19.5656 16.6667 19.4324C16.864 19.2992 17.0178 19.1099 17.1087 18.8884C17.1995 18.6669 17.2232 18.4232 17.1769 18.1881C17.1306 17.953 17.0164 17.737 16.8485 17.5675C16.6807 17.398 16.4669 17.2825 16.2341 17.2357C16.0013 17.189 15.7601 17.213 15.5408 17.3047C15.3215 17.3965 15.1341 17.5518 15.0022 17.7511C14.8704 17.9505 14.8 18.1848 14.8 18.4246C14.8 18.746 14.9264 19.0543 15.1515 19.2817C15.3765 19.509 15.6817 19.6367 16 19.6367ZM24.4 5.09123H23.2V3.87911C23.2 3.55764 23.0736 3.24933 22.8485 3.02201C22.6235 2.7947 22.3183 2.66699 22 2.66699C21.6817 2.66699 21.3765 2.7947 21.1515 3.02201C20.9264 3.24933 20.8 3.55764 20.8 3.87911V5.09123H11.2V3.87911C11.2 3.55764 11.0736 3.24933 10.8485 3.02201C10.6235 2.7947 10.3183 2.66699 10 2.66699C9.68174 2.66699 9.37652 2.7947 9.15147 3.02201C8.92643 3.24933 8.8 3.55764 8.8 3.87911V5.09123H7.6C6.64522 5.09123 5.72955 5.47435 5.05442 6.1563C4.37928 6.83825 4 7.76318 4 8.7276V25.6973C4 26.6617 4.37928 27.5866 5.05442 28.2686C5.72955 28.9505 6.64522 29.3337 7.6 29.3337H24.4C25.3548 29.3337 26.2705 28.9505 26.9456 28.2686C27.6207 27.5866 28 26.6617 28 25.6973V8.7276C28 7.76318 27.6207 6.83825 26.9456 6.1563C26.2705 5.47435 25.3548 5.09123 24.4 5.09123ZM25.6 25.6973C25.6 26.0188 25.4736 26.3271 25.2485 26.5544C25.0235 26.7817 24.7183 26.9094 24.4 26.9094H7.6C7.28174 26.9094 6.97652 26.7817 6.75147 26.5544C6.52643 26.3271 6.4 26.0188 6.4 25.6973V14.7882H25.6V25.6973ZM25.6 12.364H6.4V8.7276C6.4 8.40612 6.52643 8.09782 6.75147 7.8705C6.97652 7.64318 7.28174 7.51548 7.6 7.51548H8.8V8.7276C8.8 9.04907 8.92643 9.35738 9.15147 9.5847C9.37652 9.81201 9.68174 9.93972 10 9.93972C10.3183 9.93972 10.6235 9.81201 10.8485 9.5847C11.0736 9.35738 11.2 9.04907 11.2 8.7276V7.51548H20.8V8.7276C20.8 9.04907 20.9264 9.35738 21.1515 9.5847C21.3765 9.81201 21.6817 9.93972 22 9.93972C22.3183 9.93972 22.6235 9.81201 22.8485 9.5847C23.0736 9.35738 23.2 9.04907 23.2 8.7276V7.51548H24.4C24.7183 7.51548 25.0235 7.64318 25.2485 7.8705C25.4736 8.09782 25.6 8.40612 25.6 8.7276V12.364ZM10 19.6367C10.2373 19.6367 10.4693 19.5656 10.6667 19.4324C10.864 19.2992 11.0178 19.1099 11.1087 18.8884C11.1995 18.6669 11.2232 18.4232 11.1769 18.1881C11.1306 17.953 11.0164 17.737 10.8485 17.5675C10.6807 17.398 10.4669 17.2825 10.2341 17.2357C10.0013 17.189 9.76005 17.213 9.54078 17.3047C9.32151 17.3965 9.13409 17.5518 9.00224 17.7511C8.87038 17.9505 8.8 18.1848 8.8 18.4246C8.8 18.746 8.92643 19.0543 9.15147 19.2817C9.37652 19.509 9.68174 19.6367 10 19.6367ZM10 24.4852C10.2373 24.4852 10.4693 24.4141 10.6667 24.2809C10.864 24.1477 11.0178 23.9584 11.1087 23.7369C11.1995 23.5154 11.2232 23.2717 11.1769 23.0366C11.1306 22.8015 11.0164 22.5855 10.8485 22.416C10.6807 22.2464 10.4669 22.131 10.2341 22.0842C10.0013 22.0375 9.76005 22.0615 9.54078 22.1532C9.32151 22.2449 9.13409 22.4003 9.00224 22.5996C8.87038 22.799 8.8 23.0333 8.8 23.2731C8.8 23.5945 8.92643 23.9028 9.15147 24.1302C9.37652 24.3575 9.68174 24.4852 10 24.4852Z" fill="white"/>
</svg>
