<svg width="32" height="32" viewBox="0 0 32 32" fill="none" xmlns="http://www.w3.org/2000/svg">
<path d="M21.5868 6.69506C21.927 6.87804 22.3298 6.92613 22.7074 6.82885C23.0849 6.73156 23.4065 6.49679 23.602 6.17576C23.7637 5.90539 24.0157 5.69351 24.3183 5.57335C24.6208 5.45319 24.957 5.43155 25.2739 5.51183C25.5909 5.5921 25.8708 5.76974 26.0697 6.0169C26.2686 6.26406 26.3752 6.56676 26.3729 6.87752C26.3729 7.24975 26.2168 7.60674 25.9389 7.86995C25.661 8.13316 25.2841 8.28103 24.8911 8.28103C24.4981 8.28103 24.1213 8.4289 23.8434 8.69211C23.5655 8.95531 23.4094 9.3123 23.4094 9.68454C23.4094 10.0568 23.5655 10.4138 23.8434 10.677C24.1213 10.9402 24.4981 11.088 24.8911 11.088C25.6713 11.0876 26.4377 10.8926 27.1131 10.5228C27.7886 10.1529 28.3494 9.62119 28.7392 8.98103C29.1289 8.34087 29.334 7.61482 29.3337 6.87583C29.3333 6.13684 29.1277 5.41095 28.7374 4.77109C28.3471 4.13122 27.7858 3.59993 27.1101 3.23059C26.4343 2.86125 25.6678 2.66687 24.8876 2.66699C24.1074 2.66711 23.3409 2.86172 22.6653 3.23126C21.9897 3.60081 21.4286 4.13227 21.0385 4.77225C20.9405 4.93244 20.877 5.10941 20.8515 5.29296C20.826 5.4765 20.8392 5.66301 20.8901 5.84173C20.9411 6.02046 21.0289 6.18786 21.1484 6.33432C21.268 6.48077 21.417 6.60337 21.5868 6.69506ZM27.9584 16.7021C27.5695 16.6543 27.1764 16.7545 26.8653 16.9807C26.5542 17.207 26.3505 17.5408 26.2988 17.9091C25.9879 20.2883 24.7692 22.4776 22.8724 24.0649C20.9756 25.6521 18.5315 26.5277 16.0004 26.5266H7.71721L8.68037 25.6144C8.95635 25.3514 9.11126 24.9957 9.11126 24.6249C9.11126 24.2541 8.95635 23.8984 8.68037 23.6354C7.23555 22.2615 6.25229 20.5134 5.85444 18.6112C5.45659 16.7091 5.66195 14.7379 6.44464 12.9461C7.22734 11.1542 8.55237 9.62183 10.2528 8.54192C11.9533 7.46202 13.9531 6.88291 16.0004 6.87752C16.3934 6.87752 16.7703 6.72965 17.0482 6.46644C17.3261 6.20323 17.4822 5.84624 17.4822 5.47401C17.4822 5.10178 17.3261 4.74479 17.0482 4.48158C16.7703 4.21837 16.3934 4.0705 16.0004 4.0705C13.495 4.0804 11.0433 4.75855 8.92604 6.02726C6.80879 7.29598 5.11168 9.10393 4.02913 11.244C2.94658 13.3841 2.52238 15.7697 2.80514 18.1276C3.0879 20.4854 4.06617 22.7202 5.62788 24.5758L3.09402 26.9337C2.88841 27.131 2.74913 27.3817 2.69375 27.6539C2.63837 27.9262 2.66937 28.2079 2.78285 28.4635C2.89401 28.7198 3.08279 28.9392 3.32539 29.0941C3.56799 29.2489 3.85355 29.3323 4.14609 29.3337H16.0004C19.2477 29.3341 22.3835 28.2123 24.8197 26.1787C27.2559 24.1451 28.8251 21.3394 29.2328 18.288C29.2599 18.1045 29.2484 17.9178 29.1989 17.7385C29.1494 17.5593 29.0629 17.3911 28.9444 17.2436C28.826 17.0962 28.6778 16.9724 28.5086 16.8795C28.3394 16.7865 28.1524 16.7262 27.9584 16.7021ZM25.4542 12.5898C25.1845 12.4768 24.8852 12.4425 24.5948 12.4916L24.3281 12.5758L24.0613 12.7021L23.8391 12.8845C23.7058 13.0139 23.6001 13.1664 23.5279 13.3337C23.4403 13.5087 23.3996 13.7015 23.4094 13.8951C23.405 14.0822 23.4403 14.2684 23.5131 14.4424C23.5897 14.6109 23.7005 14.7635 23.8391 14.8916C23.9775 15.0216 24.1417 15.1245 24.3223 15.1944C24.5028 15.2642 24.6961 15.2996 24.8911 15.2986C25.2841 15.2986 25.661 15.1507 25.9389 14.8875C26.2168 14.6243 26.3729 14.2673 26.3729 13.8951C26.3779 13.711 26.3373 13.5283 26.2544 13.3617C26.0952 13.0245 25.8103 12.7546 25.4542 12.6038V12.5898Z" fill="white"/>
</svg>
