<svg width="32" height="32" viewBox="0 0 32 32" fill="none" xmlns="http://www.w3.org/2000/svg">
<path d="M27.6057 22.2803L24.3801 19.0536C24.2562 18.9287 24.1088 18.8295 23.9463 18.7618C23.7839 18.6941 23.6097 18.6592 23.4337 18.6592C23.2578 18.6592 23.0836 18.6941 22.9211 18.7618C22.7587 18.8295 22.6113 18.9287 22.4874 19.0536L17.7156 23.827C17.592 23.9516 17.4943 24.0993 17.428 24.2618C17.3616 24.4242 17.328 24.5982 17.329 24.7736V28.0003C17.329 28.3539 17.4695 28.6931 17.7194 28.9431C17.9694 29.1932 18.3084 29.3336 18.6619 29.3336H21.8876C22.063 29.3347 22.2369 29.301 22.3993 29.2347C22.5617 29.1683 22.7094 29.0705 22.8339 28.947L27.6057 24.1736C27.7307 24.0497 27.8298 23.9022 27.8975 23.7397C27.9652 23.5773 28 23.403 28 23.227C28 23.051 27.9652 22.8767 27.8975 22.7142C27.8298 22.5517 27.7307 22.4043 27.6057 22.2803ZM21.3278 26.667H19.9948V25.3336L23.4337 21.8936L24.7666 23.227L21.3278 26.667ZM13.3303 26.667H7.99871C7.6452 26.667 7.30617 26.5265 7.05621 26.2765C6.80624 26.0264 6.66581 25.6873 6.66581 25.3336V6.66699C6.66581 6.31337 6.80624 5.97423 7.05621 5.72418C7.30617 5.47413 7.6452 5.33366 7.99871 5.33366H14.6632V9.33365C14.6632 10.3945 15.0845 11.4119 15.8344 12.1621C16.5843 12.9122 17.6014 13.3337 18.6619 13.3337H22.6607V14.667C22.6607 15.0206 22.8011 15.3597 23.0511 15.6098C23.301 15.8598 23.6401 16.0003 23.9936 16.0003C24.3471 16.0003 24.6861 15.8598 24.9361 15.6098C25.186 15.3597 25.3265 15.0206 25.3265 14.667V12.0003C25.3265 12.0003 25.3265 12.0003 25.3265 11.9203C25.3126 11.7978 25.2858 11.6772 25.2465 11.5603V11.4403C25.1824 11.3032 25.0969 11.1772 24.9932 11.067L16.9958 3.06699C16.8856 2.96328 16.7597 2.87777 16.6226 2.81366C16.5828 2.80801 16.5424 2.80801 16.5026 2.81366L16.0761 2.66699H7.99871C6.93819 2.66699 5.9211 3.08842 5.1712 3.83856C4.42129 4.58871 4 5.60612 4 6.66699V25.3336C4 26.3945 4.42129 27.4119 5.1712 28.1621C5.9211 28.9122 6.93819 29.3336 7.99871 29.3336H13.3303C13.6838 29.3336 14.0229 29.1932 14.2728 28.9431C14.5228 28.6931 14.6632 28.3539 14.6632 28.0003C14.6632 27.6467 14.5228 27.3075 14.2728 27.0575C14.0229 26.8074 13.6838 26.667 13.3303 26.667ZM17.329 7.21365L20.7813 10.667H18.6619C18.3084 10.667 17.9694 10.5265 17.7194 10.2765C17.4695 10.0264 17.329 9.68728 17.329 9.33365V7.21365ZM10.6645 18.667H18.6619C19.0155 18.667 19.3545 18.5265 19.6044 18.2765C19.8544 18.0264 19.9948 17.6873 19.9948 17.3336C19.9948 16.98 19.8544 16.6409 19.6044 16.3908C19.3545 16.1408 19.0155 16.0003 18.6619 16.0003H10.6645C10.311 16.0003 9.97198 16.1408 9.72201 16.3908C9.47205 16.6409 9.33162 16.98 9.33162 17.3336C9.33162 17.6873 9.47205 18.0264 9.72201 18.2765C9.97198 18.5265 10.311 18.667 10.6645 18.667ZM10.6645 13.3337H11.9974C12.3509 13.3337 12.69 13.1932 12.9399 12.9431C13.1899 12.6931 13.3303 12.3539 13.3303 12.0003C13.3303 11.6467 13.1899 11.3076 12.9399 11.0575C12.69 10.8075 12.3509 10.667 11.9974 10.667H10.6645C10.311 10.667 9.97198 10.8075 9.72201 11.0575C9.47205 11.3076 9.33162 11.6467 9.33162 12.0003C9.33162 12.3539 9.47205 12.6931 9.72201 12.9431C9.97198 13.1932 10.311 13.3337 10.6645 13.3337ZM13.3303 21.3336H10.6645C10.311 21.3336 9.97198 21.4741 9.72201 21.7242C9.47205 21.9742 9.33162 22.3134 9.33162 22.667C9.33162 23.0206 9.47205 23.3597 9.72201 23.6098C9.97198 23.8598 10.311 24.0003 10.6645 24.0003H13.3303C13.6838 24.0003 14.0229 23.8598 14.2728 23.6098C14.5228 23.3597 14.6632 23.0206 14.6632 22.667C14.6632 22.3134 14.5228 21.9742 14.2728 21.7242C14.0229 21.4741 13.6838 21.3336 13.3303 21.3336Z" fill="white"/>
</svg>
